HIERARCHY
ROOT joint_Root
{
	OFFSET 0.0 0.0 0.0
	CHANNELS 6 Xposition Yposition Zposition Zrotation Xrotation Yrotation 
	JOINT Hips
	{
		OFFSET 4.5925 91.4895 -427.239
		CHANNELS 6 Xposition Yposition Zposition Zrotation Xrotation Yrotation 
		JOINT Spine
		{
			OFFSET 15.7357 0.0 0.0
			CHANNELS 6 Xposition Yposition Zposition Zrotation Xrotation Yrotation 
			JOINT Chest
			{
				OFFSET 8.98455 -0.406207 0.0
				CHANNELS 6 Xposition Yposition Zposition Zrotation Xrotation Yrotation 
				JOINT Neck
				{
					OFFSET 16.3773 0.0 0.0
					CHANNELS 6 Xposition Yposition Zposition Zrotation Xrotation Yrotation 
					JOINT Head
					{
						OFFSET 6.45672 0.0 0.0
						CHANNELS 6 Xposition Yposition Zposition Zrotation Xrotation Yrotation 
						End Site
						{
							OFFSET 0.0 0.0 0.0
						}
					}
				}
				JOINT Shoulder_L
				{
					OFFSET 12.9942 -0.242716 4.98039
					CHANNELS 6 Xposition Yposition Zposition Zrotation Xrotation Yrotation 
					JOINT UpperArm_L
					{
						OFFSET 5.34809 0.0 0.0
						CHANNELS 6 Xposition Yposition Zposition Zrotation Xrotation Yrotation 
						JOINT LowerArm_L
						{
							OFFSET 24.3286 1.87007e-05 0.0
							CHANNELS 6 Xposition Yposition Zposition Zrotation Xrotation Yrotation 
							JOINT Hand_L
							{
								OFFSET 22.2916 0.0 0.0
								CHANNELS 6 Xposition Yposition Zposition Zrotation Xrotation Yrotation 
								End Site
								{
									OFFSET 0.0 0.0 0.0
								}
							}
						}
					}
				}
				JOINT Shoulder_R
				{
					OFFSET 12.9945 -0.242716 -4.98039
					CHANNELS 6 Xposition Yposition Zposition Zrotation Xrotation Yrotation 
					JOINT UpperArm_R
					{
						OFFSET -5.34813 0.0 0.0
						CHANNELS 6 Xposition Yposition Zposition Zrotation Xrotation Yrotation 
						JOINT LowerArm_R
						{
							OFFSET -24.3289 0.000322201 0.0
							CHANNELS 6 Xposition Yposition Zposition Zrotation Xrotation Yrotation 
							JOINT Hand_R
							{
								OFFSET -22.2915 -0.000108084 0.0
								CHANNELS 6 Xposition Yposition Zposition Zrotation Xrotation Yrotation 
								End Site
								{
									OFFSET 0.0 0.0 0.0
								}
							}
						}
					}
				}
			}
		}
		JOINT UpperLeg_L
		{
			OFFSET -2.19248 -6.46944 0.0
			CHANNELS 6 Xposition Yposition Zposition Zrotation Xrotation Yrotation 
			JOINT LowerLeg_L
			{
				OFFSET 39.0811 0.0 -1.23785e-05
				CHANNELS 6 Xposition Yposition Zposition Zrotation Xrotation Yrotation 
				JOINT Foot_L
				{
					OFFSET 40.9854 0.0 -1.26872e-05
					CHANNELS 6 Xposition Yposition Zposition Zrotation Xrotation Yrotation 
					JOINT Toes_L
					{
						OFFSET 11.7543 0.0 0.0
						CHANNELS 6 Xposition Yposition Zposition Zrotation Xrotation Yrotation 
						End Site
						{
							OFFSET 0.0 0.0 0.0
						}
					}
				}
			}
		}
		JOINT UpperLeg_R
		{
			OFFSET -2.19251 6.46944 0.0
			CHANNELS 6 Xposition Yposition Zposition Zrotation Xrotation Yrotation 
			JOINT LowerLeg_R
			{
				OFFSET -39.0811 -0.00228153 -0.0401928
				CHANNELS 6 Xposition Yposition Zposition Zrotation Xrotation Yrotation 
				JOINT Foot_R
				{
					OFFSET -40.9854 0.0 0.0
					CHANNELS 6 Xposition Yposition Zposition Zrotation Xrotation Yrotation 
					JOINT Toes_R
					{
						OFFSET -11.7543 0.0 0.0
						CHANNELS 6 Xposition Yposition Zposition Zrotation Xrotation Yrotation 
						End Site
						{
							OFFSET 0.0 0.0 0.0
						}
					}
				}
			}
		}
	}
}
MOTION
Frames:	9
Frame Time:	0.0333333
0.000000 0.000000 0.000000 0.000000 0.000000 -0.000000 -0.793372 91.252400 430.223000 -87.633500 6.752620 173.213000 15.735700 0.000005 -0.000001 117.587000 83.229500 -118.403000 8.984550 -0.406207 -0.000000 4.301850 6.285440 -1.866840 16.377300 -0.000001 -0.000001 -5.577080 -2.981340 0.253636 6.456720 -0.000001 -0.000000 -9.939500 -6.481390 -0.593981 12.994200 -0.242716 4.980390 -87.688400 -5.443160 -66.948000 5.348090 -0.000007 -0.000001 -69.208600 34.750900 21.402800 24.328600 0.000019 0.000005 21.531800 -3.924310 -99.842600 22.291600 -0.000001 0.000005 4.244520 5.464250 -5.158220 12.994500 -0.242716 -4.980390 89.187500 4.627290 -80.030400 -5.348130 -0.000001 -0.000004 -56.308700 36.617200 -16.363100 -24.328900 0.000322 -0.000009 -13.986000 5.395980 -110.679000 -22.291500 -0.000108 -0.000004 10.706400 5.449010 -4.597980 -2.192480 -6.469440 -0.000000 177.640000 -6.156740 -27.276300 39.081100 -0.000007 -0.000012 0.005806 -0.009050 32.678800 40.985400 -0.000006 -0.000013 0.928150 2.165300 -71.887700 11.754300 -0.000000 0.000003 -0.007355 -0.082693 -19.943500 -2.192510 6.469440 -0.000001 179.032000 7.473570 -178.791000 -39.081100 -0.002282 -0.040193 0.069036 -0.064065 45.754100 -40.985400 0.000008 0.000006 0.633434 4.902170 -41.618700 -11.754300 -0.000006 -0.000006 -0.024965 -0.193384 -24.484700
0.000000 0.000000 0.000000 0.000000 0.000000 -0.000000 -0.758176 88.870700 424.223000 -88.380100 5.608390 174.089000 15.735700 0.000005 -0.000001 110.012000 83.100000 -111.379000 8.984550 -0.406207 -0.000000 5.273250 4.742080 -2.951520 16.377300 -0.000001 -0.000001 -5.258890 -3.226100 0.049676 6.456720 -0.000001 -0.000000 -10.916900 -6.492270 -0.988204 12.994200 -0.242716 4.980390 -88.402700 -3.782390 -67.087000 5.348090 -0.000007 -0.000001 -66.090300 30.874500 15.974700 24.328600 0.000019 0.000005 18.405600 -4.095030 -102.115000 22.291600 -0.000001 0.000005 4.969390 5.467500 -5.274860 12.994500 -0.242716 -4.980390 88.977300 5.569750 -79.579300 -5.348130 -0.000001 -0.000004 -55.373700 37.235700 -13.328300 -24.328900 0.000322 -0.000009 -11.579600 3.437570 -106.302000 -22.291500 -0.000108 -0.000004 10.203100 5.439810 -4.279270 -2.192480 -6.469440 -0.000000 175.122000 -8.282420 -28.794900 39.081100 -0.000007 -0.000012 -0.048328 0.056804 40.391700 40.985400 -0.000006 -0.000013 6.725710 -0.108327 -68.562400 11.754300 -0.000000 0.000003 -0.000000 -0.000002 -16.577500 -2.192510 6.469440 -0.000001 178.545000 5.821480 177.888000 -39.081100 -0.002282 -0.040193 0.039295 -0.022574 57.969500 -40.985400 0.000008 0.000006 2.289510 1.680860 -42.700800 -11.754300 -0.000006 -0.000006 -0.025538 -0.196231 -24.602500
0.000000 0.000000 0.000000 0.000000 0.000000 -0.000000 -0.892682 85.557800 418.352000 -89.046800 5.032230 175.030000 15.735700 0.000005 -0.000001 102.958000 82.904800 -104.732000 8.984550 -0.406207 -0.000000 6.122490 3.198640 -3.716820 16.377300 -0.000001 -0.000001 -4.714450 -3.646100 0.434698 6.456720 -0.000001 -0.000000 -11.022000 -5.819280 -2.015760 12.994200 -0.242716 4.980390 -89.782600 -0.532810 -67.877700 5.348090 -0.000007 -0.000001 -62.334700 26.243600 10.286900 24.328600 0.000019 0.000005 15.721400 -4.310880 -104.954000 22.291600 -0.000001 0.000005 6.394580 5.488530 -6.076630 12.994500 -0.242716 -4.980390 88.712300 6.619990 -78.966900 -5.348130 -0.000001 -0.000004 -54.392400 37.833900 -9.743910 -24.328900 0.000322 -0.000009 -9.163470 1.737500 -100.628000 -22.291500 -0.000108 -0.000004 11.092500 5.456480 -4.865040 -2.192480 -6.469440 -0.000000 174.688000 -2.651980 -29.176400 39.081100 -0.000007 -0.000012 -0.356125 0.279225 51.902100 40.985400 -0.000006 -0.000013 4.823110 -5.984360 -78.176300 11.754300 -0.000000 0.000003 -0.000116 -0.001165 -16.622100 -2.192510 6.469440 -0.000001 177.334000 5.067960 171.657000 -39.081100 -0.002282 -0.040193 0.006635 -0.001049 73.656400 -40.985400 0.000008 0.000006 3.352460 -0.615694 -42.899500 -11.754300 -0.000006 -0.000006 -0.025381 -0.195455 -24.570400
0.000000 0.000000 0.000000 0.000000 0.000000 -0.000000 -1.137210 83.011800 413.106000 -90.641600 3.741270 175.641000 15.735700 0.000005 -0.000001 94.946100 82.533300 -97.313200 8.984550 -0.406207 -0.000000 7.144350 1.295730 -4.810110 16.377300 -0.000001 -0.000001 -5.125890 -4.407460 0.674629 6.456720 -0.000001 -0.000000 -10.432500 -5.402890 -2.225620 12.994200 -0.242716 4.980390 -91.612000 4.383550 -69.779400 5.348090 -0.000007 -0.000001 -58.181600 21.036300 2.059580 24.328600 0.000019 0.000005 14.033000 -4.254270 -106.530000 22.291600 -0.000001 0.000005 5.333350 5.489570 -6.111180 12.994500 -0.242716 -4.980390 88.261900 8.640320 -78.581200 -5.348130 -0.000001 -0.000004 -54.700400 36.198300 -3.990400 -24.328900 0.000322 -0.000009 -4.131980 0.185124 -92.433900 -22.291500 -0.000108 -0.000004 14.299600 5.545110 -8.379790 -2.192480 -6.469440 -0.000000 172.610000 -0.464768 -27.299800 39.081100 -0.000007 -0.000012 -0.578175 0.365139 57.727500 40.985400 -0.000006 -0.000013 4.319730 -7.665410 -85.168300 11.754300 -0.000000 0.000003 -0.000275 -0.002419 -16.667900 -2.192510 6.469440 -0.000001 175.817000 4.626820 162.863000 -39.081100 -0.002282 -0.040193 -0.078592 0.002158 88.432100 -40.985400 0.000008 0.000006 5.970470 -2.122450 -43.671000 -11.754300 -0.000006 -0.000006 -0.025560 -0.196340 -24.607000
0.000000 0.000000 0.000000 0.000000 0.000000 -0.000000 -1.170020 81.859800 407.877000 -90.293500 2.766340 175.306000 15.735700 0.000005 -0.000001 92.108700 82.400100 -94.408800 8.984550 -0.406207 -0.000000 7.439230 0.563645 -4.631950 16.377300 -0.000001 -0.000001 -4.691480 -4.940190 0.653403 6.456720 -0.000001 -0.000000 -9.854040 -6.170040 -1.363640 12.994200 -0.242716 4.980390 -92.196900 6.278900 -70.670500 5.348090 -0.000007 -0.000001 -59.165200 19.293500 -10.445200 24.328600 0.000019 0.000005 19.005500 -5.004460 -104.216000 22.291600 -0.000001 0.000005 2.853350 5.481230 -5.803780 12.994500 -0.242716 -4.980390 88.060900 9.356610 -78.236000 -5.348130 -0.000001 -0.000004 -58.518500 32.158700 5.032300 -24.328900 0.000322 -0.000009 0.106746 0.005785 -86.808800 -22.291500 -0.000108 -0.000004 16.060600 5.574270 -9.945470 -2.192480 -6.469440 -0.000000 173.016000 -2.626110 -23.710900 39.081100 -0.000007 -0.000012 -0.616625 0.374685 58.717000 40.985400 -0.000006 -0.000013 5.324980 -5.710580 -90.170700 11.754300 -0.000000 0.000003 -0.000353 -0.002976 -16.687800 -2.192510 6.469440 -0.000001 176.726000 3.599560 152.944000 -39.081100 -0.002282 -0.040193 -0.177925 -0.026672 98.344100 -40.985400 0.000008 0.000006 7.629990 -2.851820 -45.476700 -11.754300 -0.000006 -0.000006 -0.025283 -0.194967 -24.550200
0.000000 0.000000 0.000000 0.000000 0.000000 -0.000000 -0.973101 82.135700 402.176000 -88.525200 0.469570 173.917000 15.735700 0.000005 -0.000001 84.275000 82.809700 -85.599900 8.984550 -0.406207 -0.000000 6.529440 -1.415850 -2.566050 16.377300 -0.000001 -0.000001 -4.376270 -5.315910 0.475513 6.456720 -0.000001 -0.000000 -8.613220 -5.405200 -1.997110 12.994200 -0.242716 4.980390 -91.935500 5.862160 -71.694600 5.348090 -0.000007 -0.000001 -63.658100 20.363800 -19.551400 24.328600 0.000019 0.000005 27.756200 -7.884690 -104.605000 22.291600 -0.000001 0.000005 0.575245 5.486000 -5.976770 12.994500 -0.242716 -4.980390 88.055100 8.256260 -76.692300 -5.348130 -0.000001 -0.000004 -61.505900 30.878600 12.743400 -24.328900 0.000322 -0.000009 -7.319870 -0.084552 -89.294600 -22.291500 -0.000108 -0.000004 10.692500 5.575880 -9.981890 -2.192480 -6.469440 -0.000000 175.663000 -3.104990 -18.494000 39.081100 -0.000007 -0.000012 -0.608083 0.429903 54.741900 40.985400 -0.000006 -0.000013 6.138650 -3.351330 -92.745800 11.754300 -0.000000 0.000003 -0.000367 -0.003080 -16.691500 -2.192510 6.469440 -0.000001 179.382000 4.490740 144.040000 -39.081100 -0.002282 -0.040193 -0.176370 -0.036388 101.420000 -40.985400 0.000008 0.000006 8.130120 -4.893160 -47.657000 -11.754300 -0.000006 -0.000006 -0.024565 -0.191377 -24.401800
0.000000 0.000000 0.000000 0.000000 0.000000 -0.000000 -0.592259 83.863200 395.636000 -86.049400 -2.711960 172.893000 15.735700 0.000005 -0.000001 68.759500 82.949200 -68.676300 8.984550 -0.406207 -0.000000 5.398230 -5.098980 0.406829 16.377300 -0.000001 -0.000001 -3.677300 -5.273500 0.255036 6.456720 -0.000001 -0.000000 -7.725880 -3.147600 -2.514090 12.994200 -0.242716 4.980390 -91.005500 3.309090 -73.095200 5.348090 -0.000007 -0.000001 -67.636900 23.436700 -23.412700 24.328600 0.000019 0.000005 26.452600 -9.206090 -107.828000 22.291600 -0.000001 0.000005 2.547010 5.461160 -5.084040 12.994500 -0.242716 -4.980390 88.252400 6.550590 -75.024500 -5.348130 -0.000001 -0.000004 -63.786300 33.842700 17.840700 -24.328900 0.000322 -0.000009 -12.785900 0.929531 -94.085100 -22.291500 -0.000108 -0.000004 7.846630 5.562960 -9.325450 -2.192480 -6.469440 -0.000000 178.931000 -1.283400 -9.372440 39.081100 -0.000007 -0.000012 -0.005168 0.005415 43.682100 40.985400 -0.000006 -0.000013 9.158320 -3.605750 -91.896300 11.754300 -0.000000 0.000003 -1.199980 -1.540160 -15.629000 -2.192510 6.469440 -0.000001 -176.682000 6.394810 138.854000 -39.081100 -0.002282 -0.040193 -0.121821 -0.016819 97.614700 -40.985400 0.000008 0.000006 9.248330 -7.286470 -50.157200 -11.754300 -0.000006 -0.000006 -0.021263 -0.174186 -23.692100
0.000000 0.000000 0.000000 0.000000 0.000000 -0.000000 -0.307493 86.518000 388.753000 -83.765800 -4.204040 171.075000 15.735700 0.000005 -0.000001 55.282000 82.971300 -53.803400 8.984550 -0.406207 -0.000000 3.926630 -8.044660 3.233940 16.377300 -0.000001 -0.000001 -3.691430 -5.007500 0.346317 6.456720 -0.000001 -0.000000 -7.093200 -1.055840 -2.942070 12.994200 -0.242716 4.980390 -90.308700 1.074140 -73.974500 5.348090 -0.000007 -0.000001 -66.916000 28.192800 -26.485700 24.328600 0.000019 0.000005 19.914900 -8.474560 -112.142000 22.291600 -0.000001 0.000005 6.165620 5.452760 -4.728130 12.994500 -0.242716 -4.980390 88.483400 5.211970 -73.748400 -5.348130 -0.000001 -0.000004 -65.062800 36.915200 21.002400 -24.328900 0.000322 -0.000009 -11.369200 1.804410 -98.903800 -22.291500 -0.000108 -0.000004 5.067040 5.555630 -8.967320 -2.192480 -6.469440 -0.000000 -177.957000 -0.272550 -3.717300 39.081100 -0.000007 -0.000012 0.055967 -0.080660 34.754800 40.985400 -0.000006 -0.000013 9.160550 -1.751200 -79.500800 11.754300 -0.000000 0.000003 -0.022534 -0.180952 -23.975000 -2.192510 6.469440 -0.000001 -173.335000 6.020300 135.324000 -39.081100 -0.002282 -0.040193 -0.072328 0.001133 89.077700 -40.985400 0.000008 0.000006 9.204460 -6.525740 -53.384400 -11.754300 -0.000006 -0.000006 -0.020675 -0.171000 -23.560800
0.000000 0.000000 0.000000 0.000000 0.000000 -0.000000 -0.187540 89.443800 381.958000 -82.565400 -4.962700 168.494000 15.735700 0.000005 -0.000001 43.960900 83.013000 -41.445200 8.984550 -0.406207 -0.000000 2.196630 -10.174200 5.232400 16.377300 -0.000001 -0.000001 -4.023560 -4.886320 0.971702 6.456720 -0.000001 -0.000000 -7.055060 0.480633 -2.413630 12.994200 -0.242716 4.980390 -89.806500 -0.707907 -74.695100 5.348090 -0.000007 -0.000001 -62.876000 33.209500 -29.981000 24.328600 0.000019 0.000005 14.694200 -7.189690 -115.518000 22.291600 -0.000001 0.000005 8.311270 5.482370 -5.843150 12.994500 -0.242716 -4.980390 88.760600 3.961110 -72.607100 -5.348130 -0.000001 -0.000004 -66.593800 39.233000 22.803400 -24.328900 0.000322 -0.000009 -10.928100 2.338650 -101.932000 -22.291500 -0.000108 -0.000004 3.434180 5.541090 -8.289500 -2.192480 -6.469440 -0.000000 -174.884000 -4.886680 -1.642100 39.081100 -0.000007 -0.000012 0.029380 -0.052199 29.372500 40.985400 -0.000006 -0.000013 8.524120 5.005490 -64.169900 11.754300 -0.000000 0.000003 -0.126989 -0.507128 -37.894400 -2.192510 6.469440 -0.000001 -171.771000 4.459690 133.225000 -39.081100 -0.002282 -0.040193 -0.030275 0.007710 76.946400 -40.985400 0.000008 0.000006 7.386810 -2.368780 -56.832000 -11.754300 -0.000006 -0.000006 -0.019114 -0.162334 -23.203800
